# xmcd
#
# Track frame offsets:
#	150
#	1164
#	23938
#	30119
#	84321
#	99041
#	143808
#	155948
#	186583
#
# Disc length: 2546 seconds
#
# Revision: 0
# Processed by: cddbd v1.5.2PL0 Copyright (c) Steve Scherf et al.
# Submitted via: audiograbber 1.83.01
#
DISCID=6109f009
DTITLE=Hobo Blues Band - Tiltott Gyumolcs CD2
DYEAR=1988
DGENRE=Blues
TTITLE0=Halaltanc Ballada
TTITLE1=Ballada A Senki Fiarol
TTITLE2=Zold-sarga
TTITLE3=Elszallt a Hajo a Szelben
TTITLE4=Bevonulo Baka Blues
TTITLE5=Voros Haz
TTITLE6=Bye Bye Johnny!
TTITLE7=Get Up, Stand Up!
TTITLE8=Bohoc Blues
EXTD=
EXTT0=
EXTT1=
EXTT2=
EXTT3=
EXTT4=
EXTT5=
EXTT6=
EXTT7=
EXTT8=
PLAYORDER=
